HIERARCHY
ROOT Hips
{
  OFFSET 1.44925e-005 102.336 -0.101585
  CHANNELS 6 Xposition Yposition Zposition Zrotation Xrotation Yrotation
  JOINT RightUpLeg
  {
    OFFSET -8.9458 -8.66707 0.101652
    CHANNELS 3 Zrotation Xrotation Yrotation
    JOINT RightLeg
    {
      OFFSET 0 -44.4227 1.3727
      CHANNELS 3 Zrotation Xrotation Yrotation
      JOINT RightFoot
      {
        OFFSET 0.253549 -42.0924 -1.46059
        CHANNELS 3 Zrotation Xrotation Yrotation
        JOINT RightToes
        {
          OFFSET 0.04 -4.41509 8.4991
          CHANNELS 3 Zrotation Xrotation Yrotation
          End Site
          {
            OFFSET -0.08 -0.137448 9.77979
          }
        }
      }
    }
  }
  JOINT Spine
  {
    OFFSET 0 11.8905 0
    CHANNELS 3 Zrotation Xrotation Yrotation
    JOINT Spine1
    {
      OFFSET 0 25.6574 0.127663
      CHANNELS 3 Zrotation Xrotation Yrotation
      JOINT HEad
      {
        OFFSET 0 8.73416 0.011341
        CHANNELS 3 Zrotation Xrotation Yrotation
        End Site
        {
          OFFSET -0.29 12.7742 2.51395
        }
      }
      JOINT LeftShoulder1
      {
        OFFSET 8.99 -0.362252 -0.22
        CHANNELS 3 Zrotation Xrotation Yrotation
        JOINT LeftArm
        {
          OFFSET 10.2827 -0.00337999 0.322123
          CHANNELS 3 Zrotation Xrotation Yrotation
          JOINT LeftForeArm
          {
            OFFSET 26.2597 0.099144 -1.42434
            CHANNELS 3 Zrotation Xrotation Yrotation
            JOINT LeftHand
            {
              OFFSET 22.0902 0.085362 1.02216
              CHANNELS 3 Zrotation Xrotation Yrotation
              End Site
              {
                OFFSET 13.419 -0.6 1.50291
              }
            }
          }
        }
      }
      JOINT RightShoulder
      {
        OFFSET -8.99 -0.362252 -0.22
        CHANNELS 3 Zrotation Xrotation Yrotation
        JOINT RightArm
        {
          OFFSET -10.2827 -0.00338 0.322123
          CHANNELS 3 Zrotation Xrotation Yrotation
          JOINT RightForeArm
          {
            OFFSET -26.364 0.099144 -1.42434
            CHANNELS 3 Zrotation Xrotation Yrotation
            JOINT RightHand
            {
              OFFSET -22.0324 0.085362 1.02216
              CHANNELS 3 Zrotation Xrotation Yrotation
              End Site
              {
                OFFSET -13.3284 -0.6 1.50291
              }
            }
          }
        }
      }
    }
  }
  JOINT LeftUpLeg
  {
    OFFSET 8.9458 -8.66707 0.101652
    CHANNELS 3 Zrotation Xrotation Yrotation
    JOINT LeftLeg
    {
      OFFSET 0 -44.4227 1.3727
      CHANNELS 3 Zrotation Xrotation Yrotation
      JOINT LeftFoot
      {
        OFFSET -0.253549 -42.0924 -1.46059
        CHANNELS 3 Zrotation Xrotation Yrotation
        JOINT LeftToes
        {
          OFFSET -0.04 -4.41509 8.4991
          CHANNELS 3 Zrotation Xrotation Yrotation
          End Site
          {
            OFFSET 0.08 -0.047448 9.77979
          }
        }
      }
    }
  }
}
MOTION
Frames:	8
Frame Time:	0.0333333
25.6566 102.73 44.4076 1.25832 4.56136 -174.857 -9.61241 -14.7818 -16.5619 -0.415923 33.4901 -0.299606 8.18268 -11.4783 0.079768 0.0462048 0.000530889 0.662642 13.5519 11.8526 -1.84092 -6.16438 1.85944 0.749305 1.3343 -14.185 -5.2128 -26.0986 2.79357 -5.14163 -46.3405 14.9066 -22.1928 -60.0503 -7.94261 -57.2565 1.97563 9.9182 4.56183 35.4311 5.26303 8.61411 30.6392 4.17279 3.70903 -21.0296 21.8029 95.9275 -20.188 9.30594 -1.92079 21.388 -17.5867 16.9886 0.601299 53.2151 1.91773 -8.43233 -7.70922 0.0296027 -1.39529e-009 8.75238e-006 -1.47271e-008 
24.7453 102.732 43.7332 0.565079 4.24251 -174.361 -10.9141 -14.6438 -16.2125 -0.439479 33.8082 -0.851306 8.9441 -11.9026 0.136476 0.0462048 0.000530889 0.662642 12.8734 11.5493 -1.74997 -6.53816 1.36411 0.759124 1.42703 -12.9587 -5.68888 -25.9386 2.81125 -5.23776 -46.7529 14.0661 -22.7229 -56.0179 -5.47128 -56.8221 -0.634327 9.91506 2.94159 35.0095 5.2241 8.6462 31.1458 3.49063 4.41157 -21.6002 21.5415 96.5991 -21.1634 9.28736 -1.98636 22.0832 -16.6644 14.6215 0.732687 47.5555 5.57124 -6.83105 -7.8064 0.0234076 -1.39529e-009 8.75238e-006 -1.47271e-008 
23.6806 102.586 43.1638 0.112393 4.03904 -174.37 -12.0652 -14.734 -15.7434 -0.451461 34.4585 -1.08499 9.55777 -12.2851 0.189712 0.0462048 0.000530889 0.662642 12.223 11.4025 -1.55749 -6.85997 1.06113 0.884755 1.43503 -11.9203 -5.91823 -25.9431 2.81414 -5.24561 -46.9011 13.3762 -23.3821 -51.7623 -2.82838 -56.5613 -2.74684 10.0472 0.356222 34.7294 5.1895 8.64652 31.3722 2.89756 5.46439 -21.8935 21.3888 96.9788 -22.3736 9.21045 -1.77243 22.9749 -15.068 12.727 0.773488 40.945 7.42001 -5.15982 -6.70175 0.0586588 -1.39529e-009 8.75238e-006 -1.47271e-008 
22.4515 102.28 42.7248 -0.0922386 4.19688 -174.847 -13.0166 -14.8101 -15.0802 -0.455738 35.3873 -1.11468 10.1686 -12.7208 0.251696 0.0462048 0.000530889 0.662642 11.7247 11.8499 -1.35129 -7.17582 0.731855 1.09765 1.48756 -11.1623 -5.86924 -25.9385 2.8035 -5.21382 -46.847 13.5911 -24.1343 -48.0758 -0.481421 -56.5322 0.10043 9.9359 -6.75718 34.552 5.17609 8.66742 31.3934 2.30451 6.69383 -21.9394 21.2956 97.2119 -23.4715 9.05882 -1.17974 24.0575 -12.9449 10.8928 0.679238 34.4025 6.64371 -4.62921 -2.62365 0.218476 -1.39529e-009 8.75238e-006 -1.47271e-008 
20.846 101.589 42.5318 -0.168209 4.3266 -175.896 -14.2603 -15.7365 -14.331 -0.441006 37.2965 -0.628697 11.0164 -13.3839 0.351328 0.0462048 0.000530889 0.662642 11.6909 12.587 -1.1423 -7.69069 0.345248 1.4472 1.57343 -10.8938 -5.59291 -25.8074 2.79337 -5.21663 -46.866 14.149 -24.8828 -46.2188 1.11943 -56.891 6.9819 8.86364 -14.2531 34.4439 5.20295 8.76583 31.203 1.78118 8.06349 -22.1423 21.1816 97.4861 -24.3967 8.91609 -0.652625 25.0119 -11.0198 8.27863 0.527651 29.7303 4.35072 -9.48557 2.00612 0.790832 -1.39529e-009 8.75238e-006 -1.47271e-008 
18.7691 100.378 42.5746 0.0905017 4.38358 -177.184 -15.7255 -17.5434 -13.7234 -0.411599 40.295 0.376738 12.1527 -14.271 0.500419 0.0462048 0.000530889 0.662642 12.2472 13.3851 -1.06773 -7.82269 0.0792958 1.73659 1.57454 -11.2185 -5.15498 -25.6109 2.79579 -5.27578 -47.1615 14.1266 -25.6424 -46.1864 1.9903 -57.5384 12.6386 7.57861 -17.3047 34.3476 5.23608 8.87649 30.7448 1.51472 9.71449 -22.8034 21.0351 97.8058 -25.4617 8.86705 -0.634628 26.0237 -9.68115 5.87516 0.42218 28.2653 1.96495 -19.4367 2.46731 1.65726 -1.39529e-009 8.75238e-006 -1.47271e-008 
16.4621 98.9584 42.773 0.420139 4.34595 -178.497 -17.3976 -19.6334 -13.3402 -0.374156 43.327 1.66315 13.3748 -15.0361 0.659639 0.0462048 0.000530889 0.662642 12.5751 14.1305 -1.0208 -7.43211 0.0916667 1.92296 1.42967 -12.0076 -4.58562 -25.5718 2.80264 -5.3076 -47.4835 13.7392 -26.5954 -46.5672 2.5014 -58.0829 15.3917 6.91606 -18.0272 34.2227 5.23341 8.90856 30.0833 1.44194 11.6102 -23.6667 20.9113 98.0486 -26.7353 8.86922 -0.889161 26.7669 -8.97322 6.4994 0.31005 29.5356 -0.813515 -27.3379 -2.17288 1.33607 -1.39529e-009 8.75238e-006 -1.47271e-008 
14.3921 97.8453 43.0608 0.380845 4.21136 -179.728 -19.1732 -21.3754 -13.0081 -0.328069 45.2291 2.81494 14.4544 -15.3423 0.769283 0.0462048 0.000530889 0.662642 11.6632 14.8341 -0.769468 -6.94467 0.382272 2.0785 1.16844 -13.1306 -3.94225 -25.8508 2.81005 -5.25718 -47.5245 13.4033 -27.8399 -46.9236 2.85339 -58.4897 16.8458 6.53287 -18.5648 34.1767 5.22112 8.89266 29.427 1.22497 13.4069 -24.3018 20.8375 98.1833 -27.8811 8.82108 -0.884984 26.8003 -8.98276 10.1306 0.204716 32.2237 -3.70394 -28.4299 -8.38535 -0.123346 -1.39529e-009 8.75238e-006 -1.47271e-008 
